<?xml version="1.0" standalone="no"?><!DOCTYPE svg PUBLIC "-//W3C//DTD SVG 1.1//EN" "http://www.w3.org/Graphics/SVG/1.1/DTD/svg11.dtd"><svg class="icon" width="60px" height="60.00px" viewBox="0 0 1024 1024" version="1.1" xmlns="http://www.w3.org/2000/svg"><path  d="M156.94 875.44C89.5 785.37 54.84 669 70.82 544.41 96.77 342 261.42 179.36 463 156.5c270.77-30.72 500.16 181.64 500.16 447.91a450.69 450.69 0 0 1-90 271.09 40.47 40.47 0 0 1-32.44 15.82H189.5a40.61 40.61 0 0 1-32.56-15.88z m662.92-66.1c82.87-124.78 87.26-297.53-16.76-432.84-52.79-68.67-129.66-117-214.33-133.71-234.32-46.21-440.34 134-440.34 361.62a371.15 371.15 0 0 0 61.78 204.93z"  /><path fill="#6EABB8" d="M474.3 194.53m40.73 0l0.01 0q40.73 0 40.73 40.73l0 82.49q0 40.73-40.73 40.73l-0.01 0q-40.73 0-40.73-40.73l0-82.49q0-40.73 40.73-40.73Z"  /><path fill="#6EABB8" d="M687.86 430.51a41.17 41.17 0 0 1 0-58l57.6-58a40.55 40.55 0 0 1 57.61 0 41.16 41.16 0 0 1 0 58l-57.61 58a40.56 40.56 0 0 1-57.6 0z"  /><path fill="#6EABB8" d="M922.37 563.42m0 40.86l0 0.26q0 40.86-40.86 40.86l-81.22 0q-40.86 0-40.86-40.86l0-0.26q0-40.86 40.86-40.86l81.22 0q40.86 0 40.86 40.86Z"  /><path fill="#6EABB8" d="M342.22 430.51a40.57 40.57 0 0 1-57.61 0l-57.6-58a41.16 41.16 0 0 1 0-58 40.54 40.54 0 0 1 57.6 0l57.61 58a41.17 41.17 0 0 1 0 58z"  /><path fill="#6EABB8" d="M107.7 645.39m0-40.86l0-0.26q0-40.86 40.86-40.86l81.22 0q40.86 0 40.86 40.86l0 0.26q0 40.86-40.86 40.86l-81.22 0q-40.86 0-40.86-40.86Z"  /><path fill="#6EABB8" d="M392.84 432.41l53.1 213.44a58.83 58.83 0 0 0 86.65 36.67l6.32-3.67a58.84 58.84 0 0 0 11.49-93z"  /></svg>
