<?xml version="1.0" standalone="no"?><!DOCTYPE svg PUBLIC "-//W3C//DTD SVG 1.1//EN" "http://www.w3.org/Graphics/SVG/1.1/DTD/svg11.dtd"><svg class="icon" width="16px" height="16.00px" viewBox="0 0 1024 1024" version="1.1" xmlns="http://www.w3.org/2000/svg"><path  d="M664 328.1v-48.5c0-37.6-12.2-73-34.5-99.9-23.3-28.2-54.6-43.7-88.2-43.7h-61.5c-33.6 0-64.9 15.5-88.2 43.7-22.2 26.9-34.5 62.4-34.5 99.9v48.5H168V888h688V328.1H664z m-260.9-48.5c0-53.8 34.4-97.6 76.7-97.6h61.5c42.3 0 76.7 43.8 76.7 97.6v48.5H403.1v-48.5zM810 842H214V374.1h143.1v86c-35.4 11.1-61.1 44.1-61.1 83.1 0 48 39 87 87 87s87-39 87-87c0-41.1-28.6-75.6-67-84.7v-84.4h215v84.3c-38.1 9.3-66.4 43.7-66.4 84.6 0 48 39 87 87 87s87-39 87-87c0-39.2-26-72.4-61.6-83.3V374h146v468zM383 502.2c22.6 0 41 18.4 41 41s-18.4 41-41 41-41-18.4-41-41 18.4-41 41-41z m255.6-0.2c22.6 0 41 18.4 41 41s-18.4 41-41 41-41-18.4-41-41 18.4-41 41-41z" /></svg>
