<?xml version="1.0" standalone="no"?><!DOCTYPE svg PUBLIC "-//W3C//DTD SVG 1.1//EN" "http://www.w3.org/Graphics/SVG/1.1/DTD/svg11.dtd"><svg class="icon" width="16px" height="15.68px" viewBox="0 0 1045 1024" version="1.1" xmlns="http://www.w3.org/2000/svg"><path d="M917.7 985.3H104.8c-55.9 0-101.3-48.9-101.3-109.1V698.1c0-15.1 3.6-52.9 37.4-76l2-1.4 2.3-0.9c31-11.5 66.6-33.2 66.6-99.9 0-56.6-44.1-87.6-70.4-101l-1.1-0.6C3.5 396.5 3.5 366.1 3.5 341.7V163.6c0-60.2 45.4-109.1 101.3-109.1h812.9c55.9 0 101.3 48.9 101.3 109.1v178.2c0 14.8-0.6 27.5-5.1 39.4L982 418.4c-56.1 32.9-71.4 54.7-71.4 101.5 0 46.9 16.6 70.6 71.1 101.4l1.5 0.9 1.3 1.1c23.8 19.5 34.4 35 34.4 74.8v178.2c0.1 60.1-45.3 109-101.2 109z m-856-328.9c-16.4 12.6-18.2 33.2-18.2 41.7v178.2c0 38.1 27.5 69.1 61.3 69.1h812.9c33.8 0 61.3-31 61.3-69.1V698.1c0-25.8-3.9-30.8-18.5-42.9-33-18.8-53.9-36.2-67.9-56.2-15-21.6-22-46.7-22-79.1 0-69 31.7-101 90.3-135.5C979 371 979 364.1 979 341.7V163.6c0-38.1-27.5-69.1-61.3-69.1H104.8c-33.8 0-61.3 31-61.3 69.1v178.2c0 25.2 1.7 32.8 16.8 41.9 28 14.4 91.6 56.1 91.6 136.3 0 40.4-10.8 73.3-32.1 97.8-18.7 21.4-41.6 32.2-58.1 38.6z"  /><path  d="M504.1 449l-128-126.6c-7.8-7.7-7.9-20.5-0.2-28.3 7.7-7.8 20.5-7.9 28.3-0.2l128 126.6c7.8 7.7 7.9 20.5 0.2 28.3-7.7 7.9-20.5 7.9-28.3 0.2z"  /><path  d="M514.3 421.4l126.6-128c7.7-7.8 20.5-7.9 28.3-0.2 7.8 7.7 7.9 20.5 0.2 28.3l-126.6 128c-7.7 7.8-20.5 7.9-28.3 0.2-7.8-7.7-7.9-20.5-0.2-28.3z"  /><path d="M706.5 488l-360 2c-11 0.1-20-8.9-20.1-19.9-0.1-11 8.9-20 19.9-20.1l360-2c11-0.1 20 8.9 20.1 19.9 0.1 11-8.9 20.1-19.9 20.1zM706.5 632.1l-360 2c-11 0.1-20-8.9-20.1-19.9-0.1-11 8.9-20 19.9-20.1l360-2c11-0.1 20 8.9 20.1 19.9 0.1 10.9-8.9 20-19.9 20.1z"  /><path d="M508.1 792.2l-2-360c-0.1-11 8.9-20 19.9-20.1 11-0.1 20 8.9 20.1 19.9l2 360c0.1 11-8.9 20-19.9 20.1-10.9 0-20-8.9-20.1-19.9z"  /></svg>
